<?xml version="1.0" encoding="UTF-8"?>
<!DOCTYPE svg PUBLIC "-//W3C//DTD SVG 1.1//EN" "http://www.w3.org/Graphics/SVG/1.1/DTD/svg11.dtd">
<svg version="1.1" xmlns="http://www.w3.org/2000/svg" xmlns:xlink="http://www.w3.org/1999/xlink" x="0px" y="0px" width="128" height="128" viewBox="0, 0, 128, 128">
  <g id="Background">
    <rect x="0" y="0" width="128" height="128" fill="#000000" fill-opacity="0"/>
  </g>
  <g id="Background">
    <path d="M18.093,6 L109.907,6 C116.561,6 122,11.439 122,18.093 L122,109.907 C122,116.561 116.561,122 109.907,122 L18.093,122 C11.439,122 6,116.561 6,109.907 L6,18.093 C6,11.439 11.439,6 18.093,6" fill="#737370"/>
    <path d="M14.887,47.157 C14.887,47.157 28.849,43.996 22.81,10.762 L21.919,6.005 L44.855,6.005 C48.86,21.615 52.395,28.68 66.188,37.662 L66.945,41.622 L26.77,48.586 L15.266,49.537 z M21.829,85.017 L32.2,85.336 L73.887,76.157 C73.887,76.157 78.117,84.285 82.647,89.876 C87.173,95.462 99.388,101.207 99.388,101.207 L90.155,104.221 C82.528,103.007 77.335,98.698 73.261,94.023 C75.107,101.7 78.002,104.942 80.28,107.34 L67.321,111.816 C58.675,114.798 37.306,114.45 31.109,107.221 C27.716,103.271 24.697,98.676 22.81,90.762 C20.924,82.847 21.829,85.017 21.829,85.017 z M16.216,54.13 L27.154,53.66 L68.269,46.221 L72.516,71.224 L31.017,80.084 L20.647,79.929 z" fill="#82D1F5"/>
  </g>
  <defs/>
</svg>
